<?xml version="1.0"?>
<svg xmlns="http://www.w3.org/2000/svg" xmlns:xlink="http://www.w3.org/1999/xlink" xmlns:svgjs="http://svgjs.com/svgjs" version="1.1" width="512" height="512" x="0" y="0" viewBox="0 0 512 512" style="enable-background:new 0 0 512 512" xml:space="preserve" class=""><g><g xmlns="http://www.w3.org/2000/svg"><g><path d="m256 22.032c40.575 0 103.203 7.612 151.903 29.519s40.753 71.979 32.363 119.347c-12.138 68.524 35.685 183.871 0 221.324s-127.976 97.743-184.266 97.743-148.58-60.29-184.265-97.744 12.138-152.8 0-221.324c-8.39-47.368-16.337-97.44 32.363-119.347s111.327-29.518 151.902-29.518z" fill="#c4ff0f" data-original="#665e66" style="" class=""/><path d="m220.765 484.041c-53.99-16.09-120.1-61.46-149.03-91.82-35.68-37.45 12.14-152.8 0-221.32-8.39-47.37-16.33-97.44 32.36-119.35 28.11-12.64 60.86-20.52 91.33-24.93-3.88 2.97-7.66 6.29-11.28 9.98-23.04 23.51-19.28 77.24-15.31 128.08 5.74 73.53 3.12 197.31 20 237.51 10.48 24.95 11.28 59.35 31.93 81.85z" fill="#c4ff0f" data-original="#544f57" style="" class=""/><path d="m332.7 379.296h-153.4c-1.77 4.82-2.27 10.01-1.6 14.94.81 6.09 3.39 11.81 7.52 16 11.48 11.66 33.32 26.22 70.78 26.22s59.3-14.56 70.78-26.22c4.13-4.19 6.71-9.91 7.52-16 .67-4.93.17-10.12-1.6-14.94z" fill="#c4ff0f" data-original="#ffdecf" style="" class=""/><path d="m234.78 410.231c-2.24-7.6-2.95-20.18-1.77-30.94h-53.71c-3.95 10.76-1.56 23.34 5.92 30.94 11.48 11.67 33.32 26.22 70.78 26.22-11.23 0-17.77-14.55-21.22-26.22z" fill="#c4ff0f" data-original="#ffccbf" style="" class=""/><path d="m332.7 379.296h-153.4c-1.77 4.82-2.27 10.01-1.6 14.94 14.92 10.44 39.68 21.2 78.3 21.2s63.38-10.76 78.3-21.2c.67-4.93.17-10.12-1.6-14.94z" fill="#c4ff0f" data-original="#ffccbf" style="" class=""/><path d="m410.43 235.736c0-47.49-38.5-85.99-85.99-85.99-27.93 0-52.73 13.32-68.44 33.95-15.71-20.63-40.51-33.95-68.44-33.95-47.49 0-85.99 38.5-85.99 85.99 0 44 33.06 80.26 75.68 85.35-5.1 6-9.54 13.04-13.17 21.28-4.74 10.75-1.87 23.33 7.1 30.93 7.44 6.31 18.52 13.47 34.22 18.71 13.32 4.44 29.99 7.51 50.6 7.51 44.9 0 71.06-14.55 84.82-26.22 8.97-7.6 11.84-20.18 7.1-30.93-3.63-8.24-8.07-15.28-13.17-21.28 42.62-5.09 75.68-41.35 75.68-85.35z" fill="#c4ff0f" data-original="#ffdecf" style="" class=""/><path d="m154.9 249.806c3.8 66.93 44.8 51.6 50.47 78.75s-29.41 45.19 0 63.43c.01.01.02.01.03.02-15.7-5.24-26.78-12.4-34.22-18.71-8.97-7.6-11.84-20.18-7.1-30.93 3.63-8.24 8.07-15.28 13.17-21.28-42.62-5.09-75.68-41.35-75.68-85.35 0-47.49 38.5-85.99 85.99-85.99 27.93 0 52.73 13.32 68.44 33.95-40.2-21.15-104.89-.82-101.1 66.11z" fill="#c4ff0f" data-original="#ffccbf" style="" class=""/><g><g><g><path d="m429.783 253.172c0 8.997 8.347 15.81 17.107 13.758 33.021-7.735 57.61-37.37 57.61-72.749 0-1.474-.043-2.938-.127-4.39-2.778-47.943-74.59-45.325-74.59 2.698z" fill="#c4ff0f" data-original="#ffdecf" style="" class=""/><path d="m447.101 266.883c-.056.013-.111.026-.167.039-8.773 2.065-17.146-4.738-17.147-13.751l-.005-60.682c0-42.763 56.959-49.521 71.382-16.634-22.1-9.916-54.064 1.912-54.064 33.952z" fill="#c4ff0f" data-original="#ffccbf" style="" class=""/><path d="m429.783 246.543c23.541 0 42.625-19.084 42.625-42.625 0-.841-.024-1.676-.072-2.505-1.585-27.351-42.553-25.857-42.553 1.539z" fill="#c4ff0f" data-original="#eaac9d" style="" class=""/></g></g><g><g><path d="m82.217 253.172c0 8.997-8.347 15.81-17.107 13.758-33.021-7.734-57.61-37.37-57.61-72.749 0-1.474.043-2.938.127-4.39 2.778-47.943 74.59-45.325 74.59 2.698z" fill="#c4ff0f" data-original="#ffdecf" style="" class=""/><path d="m64.899 266.883c.056.013.111.026.167.039 8.773 2.065 17.146-4.738 17.147-13.751l.005-60.682c0-42.763-56.959-49.521-71.382-16.634 22.1-9.916 54.064 1.912 54.064 33.952z" fill="#c4ff0f" data-original="#ffccbf" style="" class=""/><path d="m82.217 246.543c-23.541 0-42.625-19.084-42.625-42.625 0-.841.024-1.676.072-2.505 1.585-27.351 42.552-25.857 42.552 1.539v43.591z" fill="#c4ff0f" data-original="#eaac9d" style="" class=""/></g></g></g></g><g><path d="m364.46 159.249c1.598-3.822-.206-8.215-4.027-9.812-11.413-4.771-23.523-7.19-35.992-7.19-26.315 0-50.787 10.758-68.44 29.807-17.653-19.049-42.125-29.807-68.44-29.807-51.55 0-93.489 41.939-93.489 93.49 0 43.105 29.38 80.06 70.098 90.516-2.593 4.09-4.917 8.461-6.951 13.081-6.037 13.704-2.289 30.023 9.112 39.683 1.34 1.137 2.787 2.293 4.333 3.457-2.373 11.997 1.021 24.696 9.215 33.02 12.776 12.981 36.355 28.456 76.123 28.456s63.347-15.475 76.123-28.456c8.194-8.324 11.587-21.022 9.215-33.02 1.546-1.163 2.991-2.319 4.331-3.455 11.403-9.662 15.151-25.981 9.114-39.686-2.034-4.619-4.358-8.99-6.951-13.081 40.718-10.456 70.098-47.41 70.098-90.516 0-26.014-10.962-51.044-30.075-68.673-3.045-2.807-7.788-2.617-10.598.428-2.809 3.045-2.617 7.79.428 10.598 16.044 14.798 25.245 35.81 25.245 57.647 0 39.709-29.693 73.2-69.069 77.902-2.744.328-5.086 2.138-6.094 4.712-1.008 2.573-.519 5.493 1.272 7.597 4.754 5.584 8.797 12.122 12.018 19.432 3.432 7.791 1.389 16.71-5.087 22.197-13.146 11.149-37.692 24.44-79.97 24.44s-66.823-13.291-79.972-24.442c-6.474-5.484-8.517-14.404-5.085-22.194 3.221-7.31 7.264-13.848 12.018-19.432 1.791-2.104 2.28-5.024 1.272-7.597-1.008-2.574-3.35-4.384-6.094-4.712-39.376-4.702-69.069-38.193-69.069-77.902 0-43.28 35.21-78.49 78.489-78.49 24.703 0 47.475 11.297 62.474 30.994 1.418 1.863 3.625 2.956 5.967 2.956s4.549-1.093 5.967-2.956c14.999-19.697 37.771-30.994 62.474-30.994 10.473 0 20.636 2.029 30.207 6.03 3.817 1.595 8.212-.205 9.81-4.028zm-37.418 232.227c-.305 5.16-2.248 10.081-5.608 13.495-10.768 10.939-30.859 23.979-65.434 23.979s-54.666-13.04-65.434-23.979c-3.36-3.414-5.303-8.335-5.609-13.495 16.216 8.512 39.23 15.541 71.042 15.541 31.813-.001 54.828-7.03 71.043-15.541z" fill="#000000" data-original="#000000" style="" class=""/><path d="m231.372 293.999v18.066c0 4.142 3.357 7.5 7.5 7.5s7.5-3.358 7.5-7.5v-18.066c0-4.142-3.357-7.5-7.5-7.5s-7.5 3.358-7.5 7.5z" fill="#000000" data-original="#000000" style="" class=""/><path d="m265.628 293.999v18.066c0 4.142 3.357 7.5 7.5 7.5s7.5-3.358 7.5-7.5v-18.066c0-4.142-3.357-7.5-7.5-7.5s-7.5 3.358-7.5 7.5z" fill="#000000" data-original="#000000" style="" class=""/><path d="m174.222 243.241c0 17.117 9.321 31.043 20.779 31.043 11.457 0 20.778-13.926 20.778-31.043s-9.321-31.043-20.778-31.043c-11.458 0-20.779 13.926-20.779 31.043z" fill="#000000" data-original="#000000" style="" class=""/><path d="m296.221 243.241c0 17.117 9.321 31.043 20.778 31.043 11.458 0 20.779-13.926 20.779-31.043s-9.321-31.043-20.779-31.043c-11.457 0-20.778 13.926-20.778 31.043z" fill="#000000" data-original="#000000" style="" class=""/><path d="m511.86 189.355c-.766-13.22-6.111-24.231-15.458-31.842-8.217-6.691-18.984-10.186-30.274-9.869-5.014.145-10.038 1.093-14.808 2.8 5.631-37.264 7.248-84.329-40.343-105.74-49.465-22.245-112.49-30.171-154.977-30.171s-105.512 7.926-154.978 30.17c-47.59 21.411-45.974 68.476-40.342 105.74-4.77-1.707-9.794-2.655-14.808-2.8-11.29-.313-22.056 3.177-30.274 9.869-9.347 7.611-14.692 18.622-15.458 31.843-.093 1.601-.14 3.224-.14 4.824 0 18.652 6.419 36.919 18.073 51.437 10.372 12.919 24.525 22.446 40.256 27.233-7.766 51.602-15.088 100.334 7.974 124.545 4.277 4.484 9.349 9.303 15.071 14.322 1.424 1.249 3.187 1.861 4.942 1.861 2.085 0 4.159-.864 5.642-2.555 2.731-3.114 2.421-7.853-.693-10.584-5.39-4.727-10.137-9.235-14.104-13.394-18.005-18.902-10.879-66.249-3.987-112.037l.124-.827c2.943-.723 5.741-2.073 8.205-4.026 5.22-4.138 8.214-10.329 8.214-16.983v-60.683c0-13.299-4.771-23.784-12.061-31.265-7.813-45.72-10.451-84.855 29.52-102.838 47.302-21.272 107.892-28.852 148.824-28.852s101.522 7.579 148.823 28.85c39.972 17.984 37.334 57.118 29.521 102.839-7.291 7.481-12.061 17.966-12.061 31.265v60.683c0 6.655 2.994 12.845 8.214 16.983 2.464 1.953 5.262 3.303 8.205 4.026l.124.828c6.892 45.788 14.018 93.135-3.986 112.037-18.199 19.102-50.661 43.275-82.701 61.584-38.187 21.822-72.329 33.839-96.139 33.839-25.803 0-78.42-16.671-141.793-63.655-3.326-2.466-8.024-1.77-10.491 1.558s-1.77 8.025 1.558 10.492c41.443 30.726 105.785 66.605 150.727 66.605 18.661 0 51.779-6.214 103.581-35.816 33.707-19.262 66.706-43.885 86.119-64.261 23.058-24.208 15.736-72.939 7.97-124.542 15.732-4.787 29.885-14.313 40.257-27.232 11.653-14.518 18.072-32.785 18.072-51.437 0-1.6-.047-3.223-.14-4.824zm-496.86 4.824c0-1.312.038-2.644.114-3.957 1.11-19.168 15.357-27.599 29.319-27.599.335 0 .67.005 1.005.015 11.961.346 20.013 5.675 24.597 12.957-2.746-.873-5.606-1.363-8.46-1.446-13.809-.399-28.348 8.686-29.399 26.831-.057.974-.085 1.962-.085 2.937 0 25.084 18.522 45.922 42.608 49.56-.088 1.93-.987 3.711-2.515 4.923-.903.716-2.803 1.828-5.364 1.227-30.51-7.148-51.82-34.06-51.82-65.448zm59.717 8.771v35.284c-15.776-3.445-27.625-17.524-27.625-34.319 0-.688.021-1.385.06-2.07.546-9.411 7.515-12.71 13.518-12.71.158 0 .316.002.474.007 10.018.29 13.573 7.62 13.573 13.808zm376.14-13.808c.157-.004.314-.007.474-.007 6.003 0 12.972 3.3 13.518 12.709.039.687.06 1.384.06 2.072 0 16.794-11.849 30.874-27.625 34.319v-35.285c-.001-6.188 3.554-13.518 13.573-13.808zm-5.678 70.484c-2.563.6-4.46-.511-5.363-1.227-1.528-1.212-2.427-2.993-2.515-4.923 24.085-3.638 42.608-24.475 42.608-49.56 0-.975-.028-1.963-.085-2.938-1.051-18.142-15.599-27.223-29.399-26.829-2.854.083-5.713.573-8.46 1.446 4.584-7.282 12.636-12.611 24.597-12.957.336-.01.669-.015 1.005-.015 13.961 0 28.209 8.432 29.319 27.599.076 1.313.114 2.645.114 3.958 0 31.387-21.31 58.299-51.821 65.446z" fill="#000000" data-original="#000000" style="" class=""/></g></g></g></svg>
