<?xml version="1.0"?>
<svg xmlns="http://www.w3.org/2000/svg" xmlns:xlink="http://www.w3.org/1999/xlink" xmlns:svgjs="http://svgjs.com/svgjs" version="1.1" width="512" height="512" x="0" y="0" viewBox="0 0 512 512" style="enable-background:new 0 0 512 512" xml:space="preserve" class=""><g><g xmlns="http://www.w3.org/2000/svg"><g><circle cx="256" cy="256" fill="#4dccff" r="208" data-original="#4dccff" style="" class=""/><g fill="#b3e9ff"><g><path d="m168 208.634v-19.093a20 20 0 0 0 -12.572-18.57l-3.2-1.279a20 20 0 0 1 -8.572-30.569l.374-.5a20 20 0 0 1 20.851-7.4l40.131 10.032a20 20 0 0 0 18.993-5.26l22.418-22.418a20 20 0 0 0 4.241-22.021l-18.877-42.16c-103.467 11.993-183.787 99.918-183.787 206.604q0 .651 0 1.3l105.149-29.343a20 20 0 0 0 14.851-19.323z" fill="#97bc26" data-original="#000000" style="" class=""/><path d="m432.64 273.92a30 30 0 0 0 -11.948 39.464l20.783 36.857a207.091 207.091 0 0 0 22.525-93.483z" fill="#97bc26" data-original="#000000" style="" class=""/></g><path d="m216 212.148v-8.148a20 20 0 0 1 20-20h11.057a20 20 0 0 0 19.728-16.712l2.43-14.576a20 20 0 0 1 19.728-16.712h18.7a20 20 0 0 1 17.889 11.056l10.443 20.885a20 20 0 0 1 -7.074 25.768l-76.516 49.191a20 20 0 0 1 -29.385-9.4l-5.57-13.924a20.016 20.016 0 0 1 -1.43-7.428z" fill="#b3e9ff" data-original="#b3e9ff" style="" class=""/><path d="m236.862 311.717 13.508 8.105a9 9 0 0 0 13.63-7.722v-16.2a9 9 0 0 0 -13.63-7.718l-13.508 8.105a9 9 0 0 0 0 15.43z" fill="#b3e9ff" data-original="#b3e9ff" style="" class=""/><path d="m184 288.625v-16.619a8 8 0 0 0 -10.53-7.589l-26.94 8.98a8 8 0 0 0 -3.87 12.389l12.8 17.066a8 8 0 0 0 10.838 1.857l14.141-9.427a8 8 0 0 0 3.561-6.657z" fill="#b3e9ff" data-original="#b3e9ff" style="" class=""/></g></g><g><path d="m472 88a64 64 0 1 0 -105.384 48.821l41.384 55.179 41.384-55.179a63.859 63.859 0 0 0 22.616-48.821z" fill="#c4ff0f" data-original="#fa5d3f" style="" class=""/><circle cx="408" cy="88" fill="#ffffff" r="24" data-original="#fffdfa" style="" class=""/></g><g><circle cx="80" cy="464" fill="#994635" r="24" data-original="#994635" style=""/><circle cx="224" cy="464" fill="#994635" r="24" data-original="#994635" style=""/><path d="m50 352h140a10 10 0 0 1 10 10v94a0 0 0 0 1 0 0h-160a0 0 0 0 1 0 0v-94a10 10 0 0 1 10-10z" fill="#97239c" data-original="#fac850" style="" class=""/><path d="m254 456h-62v-88h49.23a10 10 0 0 1 9.284 6.286l13.486 33.714v38a10 10 0 0 1 -10 10z" fill="#c4ff0f" data-original="#ff7f45" style="" class=""/><path d="m200 368v40h64l-13.486-33.714a10 10 0 0 0 -9.284-6.286z" fill="#f1c59f" data-original="#f1c59f" style="" class=""/><g><path d="m332 264h56a28.032 28.032 0 0 0 28-28v-20h-16v20a12.013 12.013 0 0 1 -12 12h-56a36 36 0 0 0 0 72h24a20 20 0 0 1 0 40h-76v16h76a36 36 0 0 0 0-72h-24a20 20 0 0 1 0-40z" fill="#c4ff0f" data-original="#ff7f45" style="" class=""/><path d="m296 408h16v16h-16z" fill="#b3e9ff" data-original="#b3e9ff" style="" class=""/><path d="m336 392h16v16h-16z" fill="#b3e9ff" data-original="#b3e9ff" style="" class=""/><g fill="#fffdfa"><path d="m64 376h112v16h-112z" fill="#ffffff" data-original="#fffdfa" style="" class=""/><path d="m64 408h112v16h-112z" fill="#ffffff" data-original="#fffdfa" style="" class=""/></g></g></g></g></g></svg>
